<?xml version="1.0" encoding="UTF-8"?><svg id="Layer_1" xmlns="http://www.w3.org/2000/svg" viewBox="0 0 1024 1024"><path d="M1024,0v1024H0V0h1024ZM730,171c6.11.21,25.81,2.09,27.79-4.71l.23-71.82c.09-3.11-3.6-7.64-6.28-8.72-4.24-1.71-29.04-1.2-33.05,1.18-10.07,17.6-.53,54.57-3.69,76.06C446.13,18.41,96.34,201.85,88.96,513.46c-11.55,292.57,279.76,505.08,556.56,411.55,240.69-74.51,363.27-362.7,241.48-586.02-.38-70.94-53.03-133.95-123-146,.88-3.38-31.79-20.27-34-22ZM859.36,226.64c17.14,16.55,49.06-33.67,63.51-43.28,4.9-5.69-14.75-22.47-18.54-26.19-5.26-3.26-9.25-2.94-14.26.4-12.39,14.01-27.95,25.27-40.72,38.78-13.25,10.01,2.78,22.11,10.01,30.29ZM955.79,318.29c-10.71,1.46-39.5-4.52-44.04,5.96-1.29,3.21-1.28,22-.78,26.27.54,17.71,53.89,10,66.56,10.52,7.73-.67,13.5-3.13,14.46-11.54.85-7.42,1.65-26.22-6.05-29.94-6.09-2.94-22.76-1.36-30.15-1.26Z" fill="#fbfbfb"/><path d="M715,163c2.43,8.9,7.47,7.75,15,8,2.29,1.79,34.81,18.56,34,22-94.42-18.36-183.27,60.77-181.01,156-121.83-76.85-289.61,6.47-301.92,149.58-35.59,3.77-70.63,17.92-94.07,45.43-2.68,1.98-7.31,3.62-8,8-73.31,78.5-20.31,217.58,86.77,228.73,162.72,2.95,325.85.45,488.72,1.26,131.77-4.5,167.93-179.25,49.51-235.99-1.2-11.61-3.04-24.01-6.29-35.21-2.68-9.27-7.78-17.62-9.68-26.75,60.28-20.05,101.54-81.78,98.96-145.04,121.73,223.36-.75,511.47-241.48,586.01-276.79,93.53-568.11-118.98-556.56-411.56C96.37,201.88,446.12,18.36,715,163ZM556,168c-1.66,1.58-3.52,3.15-4,4-6.22,1.01-4.37,9.13-.97,12.47,7.59,9.87,25.4,26.74,34.96,36.04,3.01,2.93,13.1,12.54,16.51,12.54,6.41-.04,20.89-18.4,24.05-22,3.67-16.69-33.12-40.73-43.55-54.06-7.21-11.68-22.76,2.95-27,11ZM849,467c-3.39,3.12-9.26,4.32-5.87,10.36,0,0,42.86,44.15,42.86,44.15,5.16,4.18,10.91,7.48,17.75,4.73,3.32-1.98,4.59-5.16,7.26-7.24,8.39-7.29,19.9-16.04,7-26-10.12-15.76-28.58-28.31-41-42.46-10.8-6.39-21.17,9.78-28,16.46Z" fill="#15a7a7"/><path d="M764,193c148.86,25.22,167.21,242.29,24.04,291.04,1.9,9.13,7,17.48,9.68,26.75,3.24,11.21,5.09,23.61,6.29,35.21,72.8,31.26,98.34,138.3,40,195,54.16-68.54,31.82-152.7-40-195-4.97.33-3.63-17.86-5.29-22.21-2.88-13.85-8.02-26.32-13.63-39.19,131.62-48.88,133.59-241.35-2.83-284.37-101.05-33.18-198.48,48.21-198.26,151.76-122.88-79.03-288.41,5.35-301.38,148.11-.93.76-20,3.54-23.62,4.38-26.02,4.97-39.94,17.98-61.99,29.51,22.41-21.4,53.42-32.02,84.07-35.43,12.32-143.12,180.1-226.42,301.92-149.58-2.27-95.23,86.6-174.36,181.01-156Z" fill="#0b0d10"/><path d="M730,171c-7.53-.25-12.57.9-15-8,1.51-21.38-2.01-45.48-.04-66.54.24-2.53,1.53-8.22,3.73-9.52,4.01-2.38,28.81-2.9,33.05-1.18,2.68,1.08,6.37,5.62,6.28,8.72l-.23,71.82c-1.98,6.79-21.68,4.91-27.79,4.71ZM754.44,92.59c-1.52-2.93-.93-4.19-4.89-4.64-4.83-.54-22.66-.75-27.02.07-9.02,2.33-3.34,21.74-4.49,29.52.51,12.91-5.53,41.27,3.2,50.72,4.83.69,30.95,3.16,34.26-2.26l.57-71.56c.27-1.3-1.43-1.47-1.63-1.86Z" fill="#0b0d10"/><path d="M859.36,226.64c-7.22-8.2-23.27-20.27-10.01-30.29,12.77-13.52,28.33-24.77,40.72-38.78,5.01-3.34,9-3.66,14.26-.4,3.83,3.73,23.39,20.49,18.54,26.19-14.49,9.64-46.3,59.8-63.51,43.29ZM884.34,216.33c.8-.7,2.84-.64,3.71-1.77,3.73-6.17,32.42-29.05,33-33.13s-11.57-17.09-15.12-19.85c-8.54-6.64-9.98-5.64-17.93.9l-41.84,41.24c-1.27,4.63,14.61,22.49,18.81,23.83,9.58,3.07,14.1-6.55,19.39-11.23Z" fill="#0b0d10"/><path d="M955.79,318.29c7.39-.1,24.06-1.68,30.15,1.26,7.71,3.72,6.9,22.52,6.05,29.94-.96,8.41-6.73,10.87-14.46,11.54-12.71-.52-65.94,7.22-66.56-10.51-.5-4.27-.52-23.06.78-26.27,4.63-10.52,33.29-4.48,44.04-5.96ZM984.74,321.28l-66.8.16c-2.68,1.09-4.44,3.24-4.89,6.11-.58,3.71-.59,21.31.39,24.49,1.58,5.16,8.43,6.51,13.07,6.93,12.88,1.16,36.05,1.06,49.02.05,16.53-1.29,15.75-11.04,14.45-25.52-.3-3.32-1.97-10.88-5.24-12.23Z" fill="#0b0d10"/><path d="M197,534c22.08-11.55,35.96-24.53,61.99-29.51,3.62-.85,22.68-3.63,23.62-4.39,12.95-142.75,178.56-227.16,301.38-148.11-.21-103.53,97.2-184.96,198.26-151.76,136.39,43.01,134.46,235.5,2.82,284.36,5.61,12.88,10.75,25.35,13.63,39.19,1.63,4.24.36,22.63,5.29,22.21,72.99,42.41,95.07,131.12,37,198-30.42,23.41-53.37,35.02-93.46,36.04,0,0-467.08,0-467.08,0-115.47-4.4-172.29-136.66-102.46-227.04,4.07-4.11,5.1-3.55,9-9,3.07-2.27,8.12-4.46,9-9,.35-.31.64-.69,1-1ZM818,256c-115.56-103.05-270.14,48.7-171.57,170.07,2.56,1.9,15.94-.89,20.08-1.06,40.77-1.16,65.67,9.84,94.14,34.01,11.29.65,38.12-12.1,46.7-20.66,2.98-2.18,8.9-3.18,9.65-8.36.34-.31.66-.68,1-1,49.14-40.76,53.57-132.08,0-173ZM777,567c-4.52-9.71-3.19-8.25-3.98-18.46-4.72-60.9-51.12-98.12-111.56-93.57-12.47.94-22.74,8.95-34.4-.52-64-161.66-294.22-123.17-313.93,45.19,2.24,29.28-10.05,32.08-35.67,31.32-132.53,13.41-133.07,212.34,3.01,220.08,158.45-2.59,320.37,4.5,477.89-1.18,107.78-12.44,116.69-146.49,18.64-182.86Z" fill="#121f25"/><path d="M879,453c.9.74,1.37,1.43,2,2-.39,2.28.76,3.05,1.96,4.54,10,12.49,24.44,23.86,36.04,34.46-.46,3.94,6.37,7.95,1.1,10.8.2,6.15-9.17,8.02-9.1,14.2-.99.92-1.7,1.87-3,3-4.9.85-5.74,3.55-11.39,2.93s-5.75-4.67-10.65-6.36l-40.44-41.58c-2.11-4.53,1.6-5.27,2.49-8.98.31-.18.59-.76,1-1,8.04-.87,11.48-12.42,19.25-15.25,4.67-2.06,6.38.96,10.75,1.25Z" fill="#121f25"/><path d="M583,157c3.8,3.11,6.55,6.67,10,10-.32,3.42,2.74,6.34,6,6,.34.33.66.67,1,1-.39,2.28.76,3.05,1.96,4.54,7.67,9.61,30.05,22.45,20.77,36.2-5.96,1.12-14.93,15.96-20.14,16.28-10.15-3.87-43.57-40.35-50.59-48.52-2.45-3.5-2.75-7.08,0-10.5.18-.22,3.61-.14,3-3,7.93-3.38,12.25-15.67,22.45-13.95,1.84.33,3.34,2.31,5.55,1.95Z" fill="#121f25"/><path d="M841,744c-19.48,24.03-56.43,36.25-86.51,37.99-162.87-.81-326,1.68-488.72-1.26-106.45-11.18-159.75-148.73-87.77-227.73-69.75,90.4-13.09,222.63,102.46,227.04,0,0,467.08,0,467.08,0,39.88-.99,63.19-12.68,93.46-36.04Z" fill="#0b0d10"/><path d="M555,169c.61,2.86-2.82,2.78-3,3-2.75,3.42-2.45,7,0,10.5,7.09,8.24,40.38,44.57,50.59,48.52,5.22-.35,14.16-15.16,20.14-16.29,9.28-13.74-13.1-26.6-20.77-36.2-1.2-1.49-2.35-2.25-1.96-4.54,8.04,7.95,30.47,24.88,26.55,37.06-.57,1.78-16.73,18.32-19.05,19.94-1.68,1.17-2.77,2.05-5,2.06-3.41,0-13.5-9.61-16.51-12.54-9.56-9.3-27.37-26.17-34.96-36.04-3.38-3.33-5.28-11.47.97-12.47,1.1-1.08.38-1.03,3-3Z" fill="#0b0d10"/><path d="M848,468c-.88,3.72-4.6,4.45-2.49,8.98l40.44,41.58c4.91,1.69,4.94,5.73,10.65,6.36s6.49-2.08,11.39-2.93c-4.94,8.55-16.03,5.17-22.01-.49,0,0-42.86-44.15-42.86-44.15-2.89-5.21,1.1-7.2,4.87-9.36Z" fill="#0b0d10"/><path d="M918,493c-10.02-9.94-32.35-25.2-37-38,11.89,11.68,28.03,24.21,37,38Z" fill="#0b0d10"/><path d="M583,157c-2.21.36-3.71-1.61-5.55-1.95-9.97-2.15-13.63,10.31-21.45,12.95,4.26-8.06,19.78-22.69,27-11Z" fill="#0b0d10"/><path d="M911,519c-.06-6.18,9.31-8.06,9.1-14.2,5.27-2.85-1.57-6.86-1.1-10.8,11.79,10.04-.45,17.97-8,25Z" fill="#0b0d10"/><path d="M879,453c-4.37-.29-6.08-3.31-10.75-1.25-7.77,2.83-11.21,14.37-19.25,15.25,6.89-6.9,20.41-26.49,30-14Z" fill="#0b0d10"/><path d="M196,535c-.88,4.54-5.93,6.73-9,9-3.83,5.2-4,4.38-8,8,.69-4.38,5.32-6.02,8-8,4.08-5.54,4.48-4.97,9-9Z" fill="#0b0d10"/><path d="M599,173c-3.26.34-6.32-2.58-6-6,2.06,1.98,3.98,4.03,6,6Z" fill="#0b0d10"/><path d="M754.44,92.59c.2.39,1.91.55,1.63,1.86l-.57,71.56c-3.25,5.44-29.49,2.98-34.26,2.26-8.74-9.43-2.68-37.83-3.2-50.72,1.15-7.82-4.54-27.13,4.49-29.52,4.36-.82,22.19-.61,27.02-.07,3.96.45,3.37,1.71,4.89,4.64Z" fill="#121f25"/><path d="M884.34,216.33c-5.29,4.67-9.81,14.29-19.39,11.23-4.2-1.34-20.08-19.21-18.81-23.83l41.84-41.24c7.95-6.55,9.39-7.54,17.93-.9,3.55,2.76,15.7,15.72,15.12,19.85s-29.27,26.96-33,33.13c-.86,1.12-2.91,1.06-3.71,1.77Z" fill="#121f25"/><path d="M984.74,321.28c3.27,1.35,4.94,8.91,5.24,12.23,1.31,14.47,2.08,24.23-14.45,25.52-12.34-.44-57.05,5.69-62.09-6.98-.27-6.19-4.06-27.95,4.5-30.61,0,0,66.8-.16,66.8-.16Z" fill="#121f25"/><path d="M818,256c67.69,62.98,36.14,187.68-58,201-21.95-26.65-62.08-34.53-95.49-33.99-3.54.12-14.94,2.69-17.07,1.09-95.13-120.3,53.84-264.81,170.56-168.1Z" fill="#fed21f"/><path d="M777,567c97.84,36.27,89.33,170.48-18.65,182.86-157.55,5.68-319.41-1.41-477.9,1.19-135.86-7.79-135.76-206.6-2.99-220.09,26.26.73,37.66-2.2,35.66-31.33,19.76-168.34,249.9-206.88,313.93-45.18,11.67,9.47,21.93,1.45,34.4.52,60.44-4.55,106.84,32.67,111.56,93.57.79,10.22-.54,8.75,3.98,18.46-1.09-.67-1.84-.06-3.46-2.02-5.29-6.42-2.76-15.07-3.56-22.46-5.66-61.66-67.45-99-125.48-81.51-24.55,2.64-25.21-18-34.7-34.31-80.47-139.1-298.31-64.88-294.89,89.72-2.8,20.76-29.86,15.56-44.28,17.72-75.18,11.27-115.41,97.64-76.44,163.17,39.81,66.94,116.2,50.84,182.26,50.65,124.99-.96,252.13,2.35,377.1.1,91.48-5.32,123.16-115.57,48.76-164.86-7.75-5.13-21.69-8.41-25.31-16.19Z" fill="#0b0d10"/><path d="M760,457c-40.01-29.16-63.57-34.68-113.58-30.92-98.58-121.41,56.07-273.13,171.58-170.08-116.76-96.69-265.68,47.8-170.55,168.1,2.12,1.6,13.52-.97,17.06-1.09,33.4-.54,73.55,7.35,95.49,33.99,18.2-.59,42.9-15.29,57-27-.75,5.18-6.66,6.18-9.65,8.36-2.9,5.1-46.96,27.85-47.35,18.64Z" fill="#0b0d10"/><path d="M822,260c50.34,41.14,43.05,130.08-4,169,47.71-44.44,48.16-122.26,4-169Z" fill="#0b0d10"/><path d="M777,567c3.62,7.78,17.56,11.06,25.31,16.19,74.4,49.29,42.71,159.55-48.76,164.86-124.99,2.25-252.09-1.06-377.1-.09-66.06.19-142.45,16.29-182.26-50.65-38.97-65.53,1.26-151.9,76.44-163.17,14.42-2.16,41.48,3.04,44.28-17.72-3.36-154.55,214.38-228.86,294.9-89.71,9.49,16.3,10.15,36.95,34.7,34.31,58.02-17.47,119.82,19.84,125.47,81.51.79,7.39-1.73,16.04,3.56,22.46,1.62,1.97,2.37,1.35,3.46,2.02ZM537.34,499.34c-28.64,60.24-50.66,124.89-78.83,185.67-2.31,5.76-8.95,20.11-8.46,25.36,1.17,12.54,26.33,20.63,32.7,6.87l84.01-200.98c4.65-14.95-19.59-26.82-29.42-16.93ZM392.65,642.35c-9.29-8.85-19.05-17.3-28.63-25.85l62.22-59.76c4.56-11.14-16-34.68-27.73-23.74-23.28,24.37-53.98,48.11-75.5,73.5-6.58,9.14-4.08,15.44,3,22.99,22.4,23.88,48.3,45.25,70.98,69.02,10.65,10.31,21.58.66,28.42-8.6,4.55-6.15,4.98-8.61.11-14.94-7.5-9.73-23.58-23.78-32.87-32.63ZM649,618c-21.9,17.1-41.92,38.74-62,58.5-8.17,7.47,14.63,31.49,23.34,25.34,24.31-19.95,52.43-47.96,73.68-71.31,6.95-8.08,12.31-15.4,4.5-25.55-21.31-23.45-50.2-50.93-74.03-71.97-13.98-10.28-34.34,10.93-27.91,22.92,18.36,17.93,36.36,36.35,54.89,54.1,1.26,1.21,8.95,6.09,7.53,7.97Z" fill="#fafafb"/><path d="M537.34,499.34c9.83-9.88,34.07,1.98,29.42,16.93l-84.01,200.98c-6.37,13.75-31.53,5.66-32.7-6.87-.49-5.25,6.15-19.6,8.46-25.36,28.16-60.78,50.19-125.44,78.82-185.68ZM510.43,568.4c-18.14,46.28-43.63,94.95-58.21,141.87.93,9.43,23.68,17.59,28.53,5.98l84.06-202.02c1.81-13.18-20.2-23.18-28-9.93-9.55,16.2-18.94,46.21-26.37,64.1Z" fill="#0b0d10"/><path d="M392.65,642.35c9.29,8.85,25.37,22.9,32.87,32.63,4.87,6.32,4.44,8.78-.11,14.94-6.85,9.26-17.78,18.91-28.42,8.6-22.68-23.77-48.58-45.14-70.98-69.02-7.09-7.55-9.58-13.85-3-22.99,21.55-25.41,52.19-49.1,75.5-73.5,11.73-10.94,32.29,12.6,27.73,23.74l-62.22,59.76c9.58,8.54,19.35,17,28.63,25.85ZM423.7,556.71c5.55-6.84-10.07-24.78-17.2-24.78-13.16,4.16-21.56,18.91-31.85,27.71-10.72,13.15-64.23,47.32-50.17,64.37,24.24,22.04,46.52,49.58,71.51,70.5,5.89,4.93,10.28,8.92,17.97,3.94,3.32-2.15,12.09-11.54,12.64-15.42.83-5.84-6.53-9.31-9.59-12.54-16.98-17.88-35.79-33.25-52.54-50.46-9.95-5.94,19.55-21.36,21.49-28.58,0,0,37.74-34.74,37.74-34.74Z" fill="#0b0d10"/><path d="M649,618c-17.15,22.42-44.97,39.52-61.87,62.7-.9,3.41,11.59,17.4,14.91,18.75,10.42,4.7,23.21-15.29,31.49-21.43,10.51-13.32,70.42-56.8,53-72.05-24.41-22.93-47.28-48.69-72.48-70.53-11.21-9.71-29.44,6.79-25.53,19.53,20.94,20.26,41.26,40.9,62.32,60.69,1.22,3.16-1.73,2.18-1.84,2.33,1.42-1.89-6.26-6.76-7.53-7.97-18.53-17.75-36.53-36.17-54.89-54.1-6.42-11.99,13.94-33.2,27.91-22.92,23.82,21.04,52.73,48.52,74.03,71.97,7.81,10.15,2.45,17.47-4.5,25.55-21.25,23.35-49.37,51.37-73.68,71.31-8.82,6.16-31.49-17.97-23.35-25.34,20.08-19.75,40.1-41.4,62-58.5Z" fill="#0b0d10"/><path d="M510.43,568.4c7.43-17.89,16.82-47.9,26.37-64.1,7.81-13.25,29.81-3.25,28,9.93l-84.06,202.02c-4.85,11.61-27.6,3.46-28.53-5.97,14.6-46.98,40.05-95.55,58.21-141.87Z" fill="#121f25"/><path d="M423.7,556.71l-37.74,34.74c-1.96,7.25-31.42,22.6-21.49,28.57,16.75,17.21,35.55,32.58,52.54,50.46,3.06,3.22,10.42,6.7,9.59,12.54-.55,3.88-9.32,13.27-12.64,15.42-7.69,4.98-12.08.99-17.97-3.94-24.99-20.91-47.27-48.46-71.51-70.49-14.13-16.97,39.5-51.26,50.17-64.37,10.29-8.81,18.69-23.55,31.85-27.71,7.12,0,22.75,17.93,17.2,24.78Z" fill="#121f25"/><path d="M649,618c.11-.15,3.06.83,1.84-2.33-21.05-19.79-41.39-40.43-62.32-60.69-3.91-12.74,14.32-29.25,25.53-19.53,25.2,21.84,48.07,47.59,72.48,70.52,17.43,15.29-42.56,58.77-53,72.06-8.31,6.11-21.03,26.11-31.49,21.43-3.32-1.35-15.81-15.34-14.91-18.75,16.91-23.18,44.72-40.28,61.87-62.7Z" fill="#121f25"/></svg>