<?xml version="1.0" encoding="UTF-8"?><svg id="Layer_1" xmlns="http://www.w3.org/2000/svg" viewBox="0 0 1024 1024"><path d="M867,140v656H155V140h712ZM386.74,147.23c-5.54.96-9.87,5.86-10.65,11.36-1.66,11.72-1.28,44.69-.13,56.95,1.68,17.84,23.94,16.08,25.97,2.9-1.55-18.85,2.3-41.58.09-59.96-.92-7.66-7.74-12.56-15.29-11.25ZM286.66,265.66c4.32-4.28,4.45-10.9.77-15.59l-41.91-44.1c-10.56-10.4-26.69.9-21.4,14.4,15.81,16.36,30.52,34.56,48.14,48.85,4.06,2.06,11.37-.57,14.39-3.57ZM539.73,202.23c-2.02.41-4.13,2-5.76,3.25-15.13,11.65-28.91,31.68-43.43,44.57-7.86,11.86,6.82,25.23,18.41,17.41,11.45-14.54,32.66-29.64,42.87-44.13,7.56-10.72.16-23.61-12.09-21.1ZM522.01,373c-1.77-102.12-115.32-164.45-202.93-110.42-85.94,53.01-80.49,178.19,6.25,227.59,2.42,1.38,5.18,1.88,7.02,2.84,1.05.55.98,1.58.64,1.98-.41.48-8.49,5.31-10.47,7.05-22.59,19.92-34.57,46.6-41.49,75.51-45.02-2.13-86.59,22.1-104.21,63.79-28.99,68.56,14.68,145.69,89.63,150.72,159.89-.93,320.02,1.66,479.77-1.31,51.81-8.61,96.02-46.88,110.49-97.51,23.46-82.09-29.51-162.98-112.67-176.26,3.5-56.76-26.96-112.52-76.38-140.12-44.64-24.94-99.75-26.27-145.67-3.83ZM169.74,359.24c-14.84,2.5-14.44,23.09,0,25.52,9.62,1.62,49.77,1.56,59.67.15,14.37-2.04,15.3-23.31-.17-25.64-10.02-1.51-49.72-1.67-59.5-.02ZM268.73,474.23c-2.03.42-4.11,1.99-5.75,3.24-7.74,5.96-36.94,34.98-42.39,42.61-9.42,13.19,3.34,25.86,16.92,18.92l46.5-46.5c6.05-11.27-3.38-20.74-15.28-18.27Z" fill="#f8f8f9"/><path d="M522.01,373c45.91-22.44,101.02-21.1,145.67,3.83,49.42,27.6,79.88,83.36,76.38,140.12,83.15,13.28,136.13,94.17,112.67,176.26-14.47,50.63-58.68,88.9-110.49,97.51-159.75,2.98-319.88.38-479.77,1.31-74.95-5.02-118.62-82.16-89.63-150.72,17.63-41.68,59.19-65.92,104.21-63.79,6.92-28.91,18.9-55.59,41.49-75.51,1.97-1.74,10.06-6.56,10.47-7.05.33-.39.4-1.43-.64-1.98-1.84-.96-4.6-1.46-7.02-2.84-86.74-49.4-92.2-174.58-6.25-227.59,87.61-54.03,201.15,8.3,202.93,110.42ZM443.99,475.01c4.71-22.98,16.73-45.76,32.04-63.48,3.29-3.8,17.76-16.43,18.74-19.26,1.62-4.72,1.34-13.63,1.29-18.81-.81-80.57-89.62-130.65-159.72-90.62s-70.73,143.96,1,183.34c6.19,3.4,22.41,10.67,29.01,10.49,5.39-.14,17.19-4.61,24.3-5.52,18.07-2.31,35.82-1.01,53.35,3.86ZM577.8,383.3c-50.36,4.46-96.31,46.35-108.12,94.88-2.05,8.44-1.09,23.46-11.41,25.58-7.52,1.54-22.92-5.28-31.93-6.61-50-7.35-100.52,20.01-115.61,69.08-2.95,9.58-2.96,19.18-5.2,27.8-3.55,13.62-25.08,8.17-36.02,8.98-100.55,7.44-103.2,157.47,2.95,164.03h456.08c135.62-11.35,147.69-199.09,10.84-224.92-6.85-1.29-15.42.87-19.83-6.17-3.74-5.97-.55-16.73-.5-23.4.64-78.16-63.58-136.13-141.25-129.25Z" fill="#020101"/><path d="M268.73,474.23c11.9-2.47,21.33,7.01,15.28,18.27l-46.5,46.5c-13.58,6.94-26.34-5.74-16.92-18.92,5.45-7.63,34.66-36.65,42.39-42.61,1.64-1.26,3.72-2.82,5.75-3.24Z" fill="#020101"/><path d="M286.66,265.66c-3.02,2.99-10.33,5.63-14.39,3.57-17.62-14.29-32.33-32.49-48.14-48.85-5.3-13.5,10.83-24.8,21.4-14.4l41.91,44.1c3.68,4.69,3.55,11.31-.77,15.59Z" fill="#020101"/><path d="M539.73,202.23c12.25-2.51,19.65,10.37,12.09,21.1-10.21,14.48-31.42,29.59-42.87,44.13-11.59,7.82-26.27-5.54-18.41-17.41,14.52-12.89,28.3-32.92,43.43-44.57,1.63-1.25,3.74-2.84,5.76-3.25Z" fill="#020101"/><path d="M386.74,147.23c7.55-1.31,14.37,3.59,15.29,11.25,2.21,18.38-1.64,41.1-.09,59.96-2.03,13.18-24.29,14.95-25.97-2.9-1.15-12.26-1.54-45.23.13-56.95.78-5.49,5.1-10.4,10.65-11.36Z" fill="#020101"/><path d="M169.74,359.24c9.77-1.64,49.48-1.48,59.5.02,15.48,2.33,14.54,23.6.17,25.64-9.9,1.41-50.04,1.47-59.67-.15-14.44-2.43-14.84-23.02,0-25.52Z" fill="#020101"/><path d="M577.8,383.3c77.66-6.88,141.88,51.08,141.25,129.25-.05,6.68-3.24,17.44.5,23.4,4.41,7.04,12.98,4.87,19.83,6.17,136.85,25.83,124.78,213.57-10.84,224.92h-456.08c-106.15-6.56-103.5-156.59-2.95-164.03,10.94-.81,32.47,4.64,36.02-8.98,2.25-8.62,2.26-18.22,5.2-27.8,15.09-49.07,65.61-76.42,115.61-69.08,9.02,1.32,24.41,8.15,31.93,6.61,10.32-2.12,9.35-17.14,11.41-25.58,11.81-48.53,57.76-90.42,108.12-94.88ZM506.24,727.76c1.98,1.98,28.23,3.88,27.95-5.08l71.36-206.63c1.12-3.58,1.01-9.62-3.26-10.84s-25.01-2.06-25.47,5.1l-71.58,208.42c-.44,2.26-.63,7.4,1,9.03ZM476.71,555.21l-85.18,60.83c-6.81,5.03-4.87,13.02,1.55,17.38,25.12,16.89,48.51,36.5,73.6,53.4,5.84,3.93,14.72,12.1,20.32,3.69,3.33-5,3.09-18.33-.99-23.01l-60.99-42.99,62-43.98c4.13-8.68,3.87-28.59-10.31-25.32ZM627.35,557.35c-5.37,5.46-5.1,23.75,3.32,27.48l57.33,38.68c.37,1.47-4.39,4.32-5.68,5.31-18,13.79-37.75,25.45-55.79,39.21-3.74,4.99-3.96,20.5,1.5,24.46,6.36,4.61,12.13-1.27,17.29-4.66,26.07-17.14,50.3-37.35,76.15-54.85,7.31-5.3,5.18-13.71-1.55-18.39-25.97-17-50.15-36.96-76.19-53.81-5.09-3.29-10.69-9.22-16.37-3.43Z" fill="#f8f8f9"/><path d="M443.99,475.01c-17.53-4.88-35.28-6.17-53.35-3.86-7.11.91-18.91,5.38-24.3,5.52-6.61.17-22.82-7.09-29.01-10.49-71.73-39.38-72.33-142.62-1-183.34s158.91,10.05,159.72,90.62c.05,5.18.34,14.09-1.29,18.81-.97,2.83-15.45,15.46-18.74,19.26-15.31,17.71-27.33,40.5-32.04,63.48Z" fill="#feca40"/><path d="M506.24,727.76c-1.63-1.63-1.44-6.77-1-9.03l71.58-208.42c.46-7.17,21.14-6.35,25.47-5.1s4.38,7.27,3.26,10.84l-71.36,206.63c.28,8.95-25.97,7.06-27.95,5.08Z" fill="#020101"/><path d="M627.35,557.35c5.68-5.79,11.28.14,16.37,3.43,26.05,16.85,50.23,36.8,76.19,53.81,6.74,4.68,8.86,13.08,1.55,18.39-25.85,17.49-50.09,37.7-76.15,54.85-5.16,3.39-10.94,9.27-17.29,4.66-5.46-3.95-5.24-19.47-1.5-24.46,18.05-13.76,37.79-25.41,55.79-39.21,1.29-.99,6.05-3.83,5.68-5.31l-57.33-38.68c-8.42-3.73-8.69-22.02-3.32-27.48Z" fill="#020101"/><path d="M476.71,555.21c14.18-3.27,14.45,16.64,10.31,25.32l-62,43.98,60.99,42.99c4.08,4.68,4.31,18.01.99,23.01-5.59,8.41-14.48.24-20.32-3.69-25.09-16.9-48.48-36.51-73.6-53.4-6.42-4.37-8.36-12.36-1.55-17.38l85.18-60.83Z" fill="#020101"/></svg>