<svg xmlns="http://www.w3.org/2000/svg" viewBox="50 50 974 924">
  <path fill="#fbfbfb" d="M1024 0v1024H0V0h1024ZM730 171c6.1.2 25.8 2 27.8-4.7l.2-71.8c.1-3.1-3.6-7.7-6.3-8.8-4.2-1.7-29-1.2-33 1.2-10 17.6-.5 54.6-3.7 76C446.1 18.5 96.3 202 89 513.6 77.4 806 368.7 1018.5 645.5 925c240.7-74.5 363.3-362.7 241.5-586-.4-71-53-134-123-146 .9-3.4-31.8-20.3-34-22Zm129.4 55.6c17.1 16.6 49-33.6 63.5-43.2 4.9-5.7-14.8-22.5-18.6-26.2-5.2-3.3-9.2-3-14.2.4-12.4 14-28 25.2-40.7 38.8-13.3 10 2.7 22 10 30.2Zm96.4 91.7c-10.7 1.5-39.5-4.5-44 6-1.3 3.2-1.3 22-.8 26.2.5 17.7 53.9 10 66.5 10.5 7.8-.6 13.5-3 14.5-11.5.8-7.4 1.6-26.2-6-30-6.1-2.9-22.8-1.3-30.2-1.2Z"/>
  <path fill="#15a7a7" d="M715 163c2.4 8.9 7.5 7.8 15 8 2.3 1.8 34.8 18.6 34 22-94.4-18.4-183.3 60.8-181 156-121.8-76.8-289.6 6.5-302 149.6-35.5 3.8-70.6 17.9-94 45.4-2.7 2-7.3 3.6-8 8-73.3 78.5-20.3 217.6 86.8 228.7 162.7 3 325.8.5 488.7 1.3 131.8-4.5 168-179.3 49.5-236-1.2-11.6-3-24-6.3-35.2-2.7-9.3-7.8-17.6-9.7-26.8 60.3-20 101.6-81.7 99-145 121.7 223.4-.8 511.5-241.5 586C368.7 1018.5 77.4 806 89 513.5 96.4 201.9 446 18.4 715 163Zm-159 5c-1.7 1.6-3.5 3.1-4 4-6.2 1-4.4 9.1-1 12.5 7.6 9.8 25.4 26.7 35 36 3 3 13 12.5 16.5 12.5 6.4 0 20.9-18.4 24-22 3.7-16.6-33-40.7-43.5-54-7.2-11.7-22.8 3-27 11Zm293 299c-3.4 3.1-9.3 4.3-5.9 10.4l42.9 44.1c5.2 4.2 10.9 7.5 17.7 4.7 3.4-2 4.6-5.1 7.3-7.2 8.4-7.3 19.9-16 7-26-10.1-15.8-28.6-28.3-41-42.5-10.8-6.3-21.2 9.8-28 16.5Z"/>
  <path fill="#0b0d10" d="M764 193c148.9 25.2 167.2 242.3 24 291 2 9.2 7 17.5 9.7 26.8 3.3 11.2 5.1 23.6 6.3 35.2 72.8 31.3 98.3 138.3 40 195 54.2-68.5 31.8-152.7-40-195-5 .3-3.6-17.9-5.3-22.2-2.9-13.9-8-26.3-13.6-39.2 131.6-48.9 133.6-241.4-2.8-284.4C681.3 167 583.8 248.4 584 352c-122.9-79-288.4 5.3-301.4 148.1-1 .8-20 3.5-23.6 4.4-26 5-40 18-62 29.5 22.4-21.4 53.4-32 84-35.4C293.5 355.4 461.3 272 583 349c-2.3-95.2 86.6-174.4 181-156Zm-34-22c-7.5-.3-12.6.9-15-8 1.5-21.4-2-45.5 0-66.5.2-2.6 1.5-8.3 3.7-9.6 4-2.3 28.8-2.9 33-1.1 2.7 1 6.4 5.6 6.3 8.7l-.2 71.8c-2 6.8-21.7 5-27.8 4.7Zm24.4-78.4c-1.5-3-.9-4.2-4.8-4.6a179 179 0 0 0-27 0c-9 2.3-3.4 21.8-4.6 29.5.6 13-5.5 41.3 3.2 50.8 4.9.6 31 3.1 34.3-2.3l.6-71.6c.2-1.3-1.5-1.4-1.7-1.8Zm105 134c-7.3-8.2-23.3-20.2-10-30.3 12.7-13.5 28.3-24.7 40.7-38.7 5-3.4 9-3.7 14.2-.4 3.9 3.7 23.4 20.5 18.6 26.2-14.5 9.6-46.3 59.8-63.5 43.2Zm25-10.3c.7-.7 2.8-.6 3.7-1.7 3.7-6.2 32.4-29 33-33.2s-11.6-17-15.2-19.8c-8.5-6.7-10-5.7-17.9.9l-41.8 41.2c-1.3 4.7 14.6 22.5 18.8 23.9 9.6 3 14-6.6 19.4-11.3Z"/>
  <path fill="#0b0d10" d="M955.8 318.3c7.4-.1 24-1.7 30.1 1.3 7.7 3.7 7 22.5 6 29.9-.9 8.4-6.6 10.9-14.4 11.5-12.7-.5-66 7.3-66.5-10.5-.5-4.2-.6-23 .7-26.2 4.7-10.6 33.3-4.5 44-6Zm29 3-66.9.1a7.7 7.7 0 0 0-4.8 6.2 132 132 0 0 0 .3 24.4c1.6 5.2 8.5 6.6 13.1 7 12.9 1.1 36 1 49 0 16.6-1.3 15.8-11 14.5-25.5-.3-3.3-2-10.9-5.3-12.2Z"/>
  <path fill="#121f25" d="M197 534c22-11.6 36-24.5 62-29.5 3.6-.9 22.7-3.6 23.6-4.4C295.6 357.3 461.2 272.9 584 352c-.2-103.5 97.2-185 198.3-151.8 136.3 43 134.4 235.5 2.8 284.4a198.9 198.9 0 0 1 13.6 39.2c1.6 4.2.4 22.6 5.3 22.2 73 42.4 95 131.1 37 198-30.4 23.4-53.4 35-93.5 36h-467C165 775.6 108.1 643.4 178 553c4-4.1 5-3.6 9-9 3-2.3 8.1-4.5 9-9l1-1Zm621-278c-115.6-103-270.1 48.7-171.6 170 2.6 2 16-.8 20.1-1 40.8-1.2 65.7 9.8 94.2 34 11.2.7 38-12 46.7-20.6 3-2.2 8.9-3.2 9.6-8.4l1-1c49.1-40.8 53.6-132 0-173Zm-41 311c-4.5-9.7-3.2-8.3-4-18.5-4.7-60.9-51.1-98-111.5-93.5-12.5 1-22.8 9-34.4-.6-64-161.6-294.3-123.1-314 45.2 2.3 29.3-10 32.1-35.6 31.4-132.6 13.4-133.1 212.3 3 220 158.4-2.5 320.3 4.5 477.9-1.1C866 737.4 875 603.4 777 567Z"/>
  <path fill="#121f25" d="M879 453c.9.7 1.4 1.4 2 2-.4 2.3.8 3 2 4.5 10 12.5 24.4 23.9 36 34.5-.5 4 6.4 8 1.1 10.8.2 6.2-9.2 8-9.1 14.2-1 1-1.7 1.9-3 3-4.9.8-5.7 3.5-11.4 3s-5.7-4.7-10.6-6.4L845.5 477c-2-4.5 1.6-5.3 2.5-9 .3-.2.6-.8 1-1 8-.9 11.5-12.4 19.3-15.2 4.6-2.1 6.3 1 10.7 1.2ZM583 157c3.8 3.1 6.5 6.7 10 10a5.6 5.6 0 0 0 6 6l1 1c-.4 2.3.8 3 2 4.5 7.6 9.6 30 22.5 20.7 36.2-6 1.2-14.9 16-20.1 16.3-10.2-3.8-43.6-40.3-50.6-48.5-2.5-3.5-2.8-7 0-10.5.2-.2 3.6-.1 3-3 8-3.4 12.3-15.7 22.4-14 1.9.4 3.4 2.4 5.6 2Z"/>
  <path fill="#0b0d10" d="M841 744c-19.5 24-56.4 36.3-86.5 38-162.9-.8-326 1.7-488.7-1.3C159.3 769.5 106 632 178 553c-69.8 90.4-13 222.6 102.5 227h467c40-1 63.2-12.6 93.5-36ZM555 169c.6 2.9-2.8 2.8-3 3-2.8 3.4-2.5 7 0 10.5 7 8.2 40.4 44.6 50.6 48.5 5.2-.3 14.2-15.1 20.1-16.3 9.3-13.7-13-26.6-20.7-36.2-1.2-1.5-2.4-2.2-2-4.5 8 8 30.5 24.9 26.6 37-.6 1.8-16.8 18.4-19.1 20-1.7 1.2-2.8 2-5 2-3.4 0-13.5-9.6-16.5-12.5-9.6-9.3-27.4-26.2-35-36-3.4-3.4-5.3-11.5 1-12.5 1.1-1 .4-1 3-3Zm293 299c-.9 3.7-4.6 4.5-2.5 9l40.4 41.6c5 1.7 5 5.7 10.7 6.3s6.5-2 11.4-3c-5 8.6-16 5.3-22-.4l-43-44.1c-2.9-5.3 1.1-7.2 4.9-9.4Zm70 25c-10-10-32.4-25.2-37-38 11.9 11.7 28 24.2 37 38ZM583 157c-2.2.4-3.7-1.6-5.5-2-10-2.1-13.7 10.4-21.5 13 4.3-8 19.8-22.7 27-11Zm328 362c0-6.2 9.3-8 9.1-14.2 5.3-2.9-1.6-6.9-1.1-10.8 11.8 10-.5 18-8 25Zm-32-66c-4.4-.3-6-3.3-10.8-1.3-7.7 2.9-11.2 14.4-19.2 15.3 6.9-6.9 20.4-26.5 30-14Zm-683 82c-.9 4.5-6 6.7-9 9-3.8 5.2-4 4.4-8 8 .7-4.4 5.3-6 8-8 4-5.5 4.5-5 9-9Zm403-362a5.6 5.6 0 0 1-6-6l6 6Z"/>
  <path fill="#121f25" d="M754.4 92.6c.2.4 2 .5 1.7 1.9l-.6 71.5c-3.3 5.4-29.5 3-34.3 2.3-8.7-9.5-2.6-37.9-3.2-50.8 1.2-7.8-4.5-27 4.5-29.5a179 179 0 0 1 27 0c4 .4 3.4 1.7 5 4.6Zm129.9 123.7c-5.2 4.7-9.8 14.3-19.3 11.3-4.2-1.4-20.1-19.2-18.9-23.9l41.9-41.2c8-6.6 9.4-7.5 18-1 3.5 2.9 15.6 15.8 15 20s-29.2 26.9-33 33c-.8 1.2-2.9 1.1-3.7 1.8Zm100.4 105c3.3 1.3 5 8.9 5.3 12.2 1.3 14.5 2 24.2-14.5 25.5-12.3-.4-57 5.7-62-7-.3-6.1-4.1-27.9 4.4-30.6l66.8-.1Z"/>
  <path fill="#fed21f" d="M818 256c67.7 63 36.1 187.7-58 201-22-26.6-62-34.5-95.5-34-3.5.1-15 2.7-17 1.1A119.9 119.9 0 0 1 818 256Z"/>
  <path fill="#0b0d10" d="M777 567c97.8 36.3 89.3 170.5-18.6 182.9-157.6 5.6-319.5-1.4-478 1.2-135.8-7.8-135.7-206.6-3-220.1 26.3.7 37.7-2.2 35.7-31.4 19.8-168.3 250-206.8 314-45.1 11.6 9.4 21.9 1.4 34.3.5 60.5-4.6 106.9 32.6 111.6 93.5.8 10.3-.5 8.8 4 18.5-1.1-.7-1.8 0-3.5-2-5.3-6.4-2.7-15-3.5-22.5-5.7-61.6-67.5-99-125.5-81.5-24.6 2.6-25.2-18-34.7-34.3-80.5-139.1-298.3-64.9-294.9 89.7-2.8 20.8-29.9 15.6-44.3 17.7-75.2 11.3-115.4 97.7-76.4 163.2 39.8 67 116.2 50.8 182.2 50.7 125-1 252.2 2.3 377.1 0 91.5-5.3 123.2-115.5 48.8-164.8-7.8-5.1-21.7-8.4-25.3-16.2Z"/>
  <path fill="#0b0d10" d="M760 457c-40-29.2-63.6-34.7-113.6-31-98.6-121.3 56-273 171.6-170-116.8-96.7-265.7 47.8-170.6 168.1 2.2 1.6 13.6-1 17.1-1 33.4-.6 73.6 7.3 95.5 33.9 18.2-.6 42.9-15.3 57-27-.8 5.2-6.7 6.2-9.7 8.4-2.8 5-47 27.8-47.3 18.6Zm62-197c50.3 41.1 43 130-4 169 47.7-44.4 48.2-122.3 4-169Z"/>
  <path fill="#fafafb" d="M777 567c3.6 7.8 17.6 11 25.3 16.2 74.4 49.3 42.7 159.5-48.8 164.9-125 2.2-252-1.1-377-.1-66.1.2-142.5 16.3-182.3-50.7-39-65.5 1.2-151.9 76.4-163.2 14.4-2.1 41.5 3 44.3-17.7-3.4-154.5 214.4-228.8 295-89.7 9.4 16.3 10 37 34.6 34.3 58-17.4 119.8 19.9 125.5 81.5.8 7.4-1.7 16 3.5 22.5 1.7 2 2.4 1.3 3.5 2Zm-239.7-67.7c-28.6 60.3-50.6 125-78.8 185.7-2.3 5.8-9 20.1-8.4 25.4 1.1 12.5 26.3 20.6 32.7 6.8l84-201c4.6-14.9-19.6-26.8-29.5-16.9Zm-144.6 143c-9.3-8.8-19.1-17.2-28.7-25.8l62.2-59.8c4.6-11.1-16-34.6-27.7-23.7-23.3 24.4-54 48.1-75.5 73.5-6.6 9.1-4 15.4 3 23 22.4 23.9 48.3 45.2 71 69 10.6 10.3 21.6.7 28.4-8.6 4.6-6.1 5-8.6.1-15-7.5-9.7-23.6-23.7-32.8-32.6ZM649 618c-21.9 17.1-42 38.7-62 58.5-8.2 7.5 14.6 31.5 23.3 25.3 24.4-20 52.5-48 73.7-71.3 7-8 12.3-15.4 4.5-25.5-21.3-23.5-50.2-51-74-72-14-10.3-34.3 11-28 23 18.4 17.9 36.4 36.3 55 54 1.2 1.2 9 6.1 7.5 8Z"/>
  <path fill="#0b0d10" d="M537.3 499.3c9.9-9.8 34.1 2 29.5 17l-84 201c-6.4 13.7-31.6 5.6-32.8-7-.4-5.2 6.2-19.5 8.5-25.3 28.2-60.8 50.2-125.4 78.8-185.7Zm-26.9 69.1c-18.1 46.3-43.6 95-58.2 141.9 1 9.4 23.7 17.6 28.6 6l84-202c1.8-13.2-20.2-23.2-28-10-9.5 16.2-19 46.2-26.4 64.1Zm-117.8 74c9.3 8.8 25.4 22.9 33 32.6 4.8 6.3 4.4 8.8-.2 15-6.8 9.2-17.8 18.8-28.4 8.5-22.7-23.7-48.6-45.1-71-69-7-7.5-9.6-13.8-3-23 21.6-25.4 52.2-49 75.5-73.5 11.7-11 32.3 12.6 27.7 23.8L364 616.5c9.6 8.6 19.4 17 28.6 25.9Zm31.1-85.7c5.5-6.8-10-24.8-17.2-24.8-13.2 4.2-21.6 19-31.9 27.7-10.7 13.2-64.2 47.4-50.1 64.4 24.2 22 46.5 49.6 71.5 70.5 5.9 5 10.3 9 18 4 3.3-2.2 12-11.6 12.6-15.5.8-5.8-6.5-9.3-9.6-12.5-17-17.9-35.8-33.3-52.5-50.5-10-6 19.5-21.3 21.5-28.5l37.7-34.8ZM649 618c-17.1 22.4-45 39.5-61.9 62.7-.9 3.4 11.6 17.4 15 18.8 10.4 4.7 23.1-15.3 31.4-21.5 10.5-13.3 70.4-56.8 53-72-24.4-23-47.3-48.7-72.5-70.6-11.2-9.7-29.4 6.8-25.5 19.6 21 20.2 41.3 40.9 62.3 60.7 1.3 3.1-1.7 2.1-1.8 2.3 1.4-1.9-6.3-6.8-7.5-8-18.6-17.7-36.6-36.1-55-54-6.3-12 14-33.3 28-23 23.8 21 52.7 48.5 74 72 7.8 10.1 2.5 17.4-4.5 25.5a766.3 766.3 0 0 1-73.7 71.3c-8.8 6.2-31.5-18-23.3-25.3 20-19.8 40-41.4 62-58.5Z"/>
  <path fill="#121f25" d="M510.4 568.4c7.5-17.9 16.9-47.9 26.4-64.1 7.8-13.3 29.8-3.3 28 10l-84 202c-5 11.6-27.7 3.4-28.6-6 14.6-47 40-95.6 58.2-141.9Zm-86.7-11.7L386 591.4c-2 7.3-31.5 22.7-21.5 28.6 16.7 17.2 35.5 32.6 52.5 50.5 3 3.2 10.4 6.7 9.6 12.5-.6 3.9-9.3 13.3-12.6 15.4-7.7 5-12.1 1-18-3.9-25-21-47.3-48.5-71.5-70.5-14.1-17 39.5-51.3 50.2-64.4 10.2-8.8 18.6-23.5 31.8-27.7 7.1 0 22.8 18 17.2 24.8ZM649 618c.1-.1 3 .8 1.8-2.3-21-19.8-41.3-40.5-62.3-60.7-3.9-12.8 14.3-29.3 25.5-19.5 25.2 21.8 48.1 47.5 72.5 70.5 17.5 15.3-42.5 58.7-53 72-8.3 6.1-21 26.1-31.5 21.5-3.3-1.4-15.8-15.4-14.9-18.8 17-23.2 44.7-40.3 61.9-62.7Z"/>
</svg>